<svg width="225" height="44" viewBox="0 0 225 44" fill="none" xmlns="http://www.w3.org/2000/svg">
<path d="M189.993 0.490417L183.707 6.98587M183.707 6.98587L189.993 15.9321M183.707 6.98587H173.31M189.993 15.9321H200.149M189.993 15.9321L183.707 24.6366M200.149 15.9321L206.435 6.98587L200.149 0.490417M200.149 15.9321L206.435 24.6366M173.31 6.98587L167.991 15.9321H156.868L151.307 6.98587M173.31 6.98587L169.925 0.941176M151.307 6.98587H139.46M151.307 6.98587L154.45 0.941176M139.46 6.98587L133.657 15.9321M139.46 6.98587L135.833 0.941176M133.657 15.9321H122.776L116.973 6.98587M133.657 15.9321L139.46 24.6366M116.973 6.98587H106.576M116.973 6.98587L120.842 0.941176M106.576 6.98587L100.531 15.9321M106.576 6.98587L101.982 0.941176M100.531 15.9321H89.6509L83.8479 6.98587M100.531 15.9321L106.576 24.6366M83.8479 6.98587H72.7256M83.8479 6.98587L87.233 0.941176M72.7256 6.98587L66.9227 15.9321M72.7256 6.98587L68.6152 0.941176M66.9227 15.9321H57.0093M66.9227 15.9321L72.7256 24.6366M57.0093 15.9321L50.9645 6.98587M57.0093 15.9321L50.9645 24.6366M50.9645 6.98587H39.6004M50.9645 6.98587L54.8332 0.941176M39.6004 6.98587L34.0393 15.9321M39.6004 6.98587L35.49 0.941176M34.0393 15.9321H23.6423M34.0393 15.9321L39.6004 24.6366L34.49 34.5499M23.6423 15.9321L16.3886 8.43665M23.6423 15.9321L18.3886 24.6366L23.6423 34.5499H34.49M16.3886 8.43665H7.20065L0.914124 0.941176M16.3886 8.43665L21.2244 0.941176M206.435 24.6366L200.149 34.5499L206.435 43.0126M206.435 24.6366H217.316L224.086 34.5499L217.316 43.0126M34.49 34.5499L39.6004 43.0126M106.576 24.6366L100.531 34.5499L106.576 43.0126M106.576 24.6366H116.973L122.776 34.5499L116.973 43.0126" stroke="url(#paint0_linear_2_289)"/>
<defs>
<linearGradient id="paint0_linear_2_289" x1="112.5" y1="-2.95737" x2="112.5" y2="45.2729" gradientUnits="userSpaceOnUse">
<stop stop-color="#4D1E8F" stop-opacity="0"/>
<stop offset="0.453125" stop-color="#6A32B9"/>
<stop offset="1" stop-color="#20172E" stop-opacity="0"/>
</linearGradient>
</defs>
</svg>
