<svg width="291" height="64" viewBox="0 0 291 64" fill="none" xmlns="http://www.w3.org/2000/svg">
<path d="M15.52 8.49042H274.466L280.849 19.2408L259.778 55.311H29.8638L9.15336 18.7106L15.52 8.49042Z" fill="#110E29"/>
<path d="M15.52 8.49042H274.466L280.849 19.2408L259.778 55.311H29.8638L9.15336 18.7106L15.52 8.49042Z" fill="url(#paint0_radial_2_296)"/>
<path d="M15.52 8.49042H274.466L280.849 19.2408L259.778 55.311H29.8638L9.15336 18.7106L15.52 8.49042Z" fill="url(#paint1_radial_2_296)"/>
<path d="M15.52 8.49042H274.466L280.849 19.2408L259.778 55.311H29.8638L9.15336 18.7106L15.52 8.49042Z" stroke="url(#paint2_linear_2_296)" stroke-width="2"/>
<path d="M220.993 10.4904L214.707 16.9859M214.707 16.9859L220.993 25.9321M214.707 16.9859H204.31M220.993 25.9321H231.149M220.993 25.9321L214.707 34.6366M231.149 25.9321L237.435 16.9859L231.149 10.4904M231.149 25.9321L237.435 34.6366M204.31 16.9859L198.991 25.9321H187.868L182.307 16.9859M204.31 16.9859L200.925 10.9412M182.307 16.9859H170.46M182.307 16.9859L185.45 10.9412M170.46 16.9859L164.657 25.9321M170.46 16.9859L166.833 10.9412M164.657 25.9321H153.776L147.973 16.9859M164.657 25.9321L170.46 34.6366M147.973 16.9859H137.576M147.973 16.9859L151.842 10.9412M137.576 16.9859L131.531 25.9321M137.576 16.9859L132.982 10.9412M131.531 25.9321H120.651L114.848 16.9859M131.531 25.9321L137.576 34.6366M114.848 16.9859H103.726M114.848 16.9859L118.233 10.9412M103.726 16.9859L97.9227 25.9321M103.726 16.9859L99.6152 10.9412M97.9227 25.9321H88.0093M97.9227 25.9321L103.726 34.6366M88.0093 25.9321L81.9645 16.9859M88.0093 25.9321L81.9645 34.6366M81.9645 16.9859H70.6004M81.9645 16.9859L85.8332 10.9412M70.6004 16.9859L65.0393 25.9321M70.6004 16.9859L66.49 10.9412M65.0393 25.9321H54.6423M65.0393 25.9321L70.6004 34.6366L65.49 44.5499M54.6423 25.9321L47.3886 18.4367M54.6423 25.9321L49.3886 34.6366L54.6423 44.5499H65.49M47.3886 18.4367H38.2007L31.9141 10.9412M47.3886 18.4367L52.2244 10.9412M237.435 34.6366L231.149 44.5499L237.435 53.0126M237.435 34.6366H248.316L255.086 44.5499L248.316 53.0126M65.49 44.5499L70.6004 53.0126M137.576 34.6366L131.531 44.5499L137.576 53.0126M137.576 34.6366H147.973L153.776 44.5499L147.973 53.0126" stroke="url(#paint3_linear_2_296)"/>
<path d="M12.5012 3.28882H277.667L287.231 19.0321L263.694 60.7369H26.7049L3.26298 19.1968L12.5012 3.28882Z" stroke="url(#paint4_linear_2_296)" stroke-width="5"/>
<path d="M77.5371 24.1491H80.7615L85.0797 34.6888H85.2501L89.5683 24.1491H92.7928V38.6945H90.2643V28.7016H90.1294L86.1095 38.6519H84.2203L80.2004 28.6803H80.0655V38.6945H77.5371V24.1491ZM98.6876 38.9147C97.9964 38.9147 97.3737 38.7916 96.8197 38.5454C96.2705 38.2944 95.8349 37.9251 95.5129 37.4374C95.1957 36.9497 95.0371 36.3484 95.0371 35.6334C95.0371 35.0179 95.1507 34.5089 95.378 34.1065C95.6053 33.704 95.9154 33.382 96.3084 33.1405C96.7014 32.8991 97.1441 32.7168 97.6365 32.5937C98.1337 32.4658 98.6474 32.3735 99.1777 32.3167C99.8169 32.2504 100.335 32.1912 100.733 32.1391C101.131 32.0823 101.42 31.9971 101.6 31.8834C101.784 31.7651 101.877 31.5828 101.877 31.3366V31.294C101.877 30.7589 101.718 30.3446 101.401 30.0511C101.083 29.7575 100.627 29.6107 100.03 29.6107C99.4002 29.6107 98.9007 29.748 98.5314 30.0226C98.1668 30.2973 97.9206 30.6216 97.7928 30.9957L95.3922 30.6547C95.5816 29.9919 95.8941 29.4379 96.3297 28.9928C96.7653 28.543 97.298 28.2068 97.9277 27.9843C98.5574 27.757 99.2535 27.6434 100.016 27.6434C100.541 27.6434 101.065 27.7049 101.585 27.828C102.106 27.9511 102.582 28.1547 103.013 28.4388C103.444 28.7182 103.789 29.0993 104.05 29.5823C104.315 30.0653 104.448 30.669 104.448 31.3934V38.6945H101.976V37.1959H101.891C101.735 37.499 101.514 37.7831 101.23 38.0482C100.951 38.3086 100.598 38.5193 100.172 38.6803C99.7506 38.8366 99.2558 38.9147 98.6876 38.9147ZM99.3553 37.0255C99.8714 37.0255 100.319 36.9237 100.698 36.7201C101.076 36.5118 101.368 36.2371 101.571 35.8962C101.78 35.5553 101.884 35.1836 101.884 34.7812V33.4957C101.803 33.5619 101.666 33.6235 101.472 33.6803C101.282 33.7371 101.069 33.7868 100.833 33.8295C100.596 33.8721 100.361 33.91 100.129 33.9431C99.8974 33.9762 99.6962 34.0047 99.5257 34.0283C99.1422 34.0804 98.7989 34.1656 98.4959 34.284C98.1929 34.4024 97.9537 34.5681 97.7786 34.7812C97.6034 34.9895 97.5158 35.2594 97.5158 35.5908C97.5158 36.0643 97.6886 36.4218 98.0342 36.6633C98.3799 36.9047 98.8202 37.0255 99.3553 37.0255ZM109.377 35.2712L109.369 32.1675H109.781L113.702 27.7854H116.706L111.884 33.1547H111.351L109.377 35.2712ZM107.033 38.6945V24.1491H109.604V38.6945H107.033ZM113.879 38.6945L110.328 33.73L112.061 31.919L116.955 38.6945H113.879ZM122.8 38.9076C121.706 38.9076 120.762 38.6803 119.966 38.2258C119.175 37.7665 118.567 37.1178 118.141 36.2797C117.715 35.4369 117.502 34.445 117.502 33.3039C117.502 32.1817 117.715 31.1969 118.141 30.3493C118.572 29.4971 119.173 28.8342 119.945 28.3607C120.717 27.8825 121.623 27.6434 122.665 27.6434C123.337 27.6434 123.972 27.7523 124.568 27.9701C125.17 28.1832 125.7 28.5146 126.159 28.9644C126.623 29.4142 126.988 29.9871 127.253 30.6832C127.518 31.3744 127.651 32.1983 127.651 33.1547V33.9431H118.709V32.2101H125.186C125.181 31.7177 125.075 31.2797 124.867 30.8962C124.658 30.508 124.367 30.2026 123.993 29.98C123.624 29.7575 123.193 29.6462 122.7 29.6462C122.175 29.6462 121.713 29.7741 121.315 30.0297C120.918 30.2807 120.608 30.6121 120.385 31.0241C120.167 31.4313 120.056 31.8787 120.051 32.3664V33.8792C120.051 34.5136 120.167 35.0582 120.399 35.5127C120.631 35.9625 120.956 36.3082 121.372 36.5496C121.789 36.7864 122.277 36.9047 122.835 36.9047C123.209 36.9047 123.548 36.8527 123.851 36.7485C124.154 36.6396 124.417 36.481 124.639 36.2726C124.862 36.0643 125.03 35.8063 125.144 35.4985L127.544 35.7684C127.393 36.4029 127.104 36.9568 126.678 37.4303C126.256 37.8991 125.717 38.2636 125.058 38.5241C124.4 38.7797 123.647 38.9076 122.8 38.9076ZM137.926 38.9147C137.235 38.9147 136.612 38.7916 136.058 38.5454C135.509 38.2944 135.073 37.9251 134.751 37.4374C134.434 36.9497 134.275 36.3484 134.275 35.6334C134.275 35.0179 134.389 34.5089 134.616 34.1065C134.844 33.704 135.154 33.382 135.547 33.1405C135.94 32.8991 136.382 32.7168 136.875 32.5937C137.372 32.4658 137.886 32.3735 138.416 32.3167C139.055 32.2504 139.574 32.1912 139.971 32.1391C140.369 32.0823 140.658 31.9971 140.838 31.8834C141.023 31.7651 141.115 31.5828 141.115 31.3366V31.294C141.115 30.7589 140.956 30.3446 140.639 30.0511C140.322 29.7575 139.865 29.6107 139.268 29.6107C138.639 29.6107 138.139 29.748 137.77 30.0226C137.405 30.2973 137.159 30.6216 137.031 30.9957L134.63 30.6547C134.82 29.9919 135.132 29.4379 135.568 28.9928C136.004 28.543 136.536 28.2068 137.166 27.9843C137.796 27.757 138.492 27.6434 139.254 27.6434C139.78 27.6434 140.303 27.7049 140.824 27.828C141.344 27.9511 141.82 28.1547 142.251 28.4388C142.682 28.7182 143.028 29.0993 143.288 29.5823C143.553 30.0653 143.686 30.669 143.686 31.3934V38.6945H141.214V37.1959H141.129C140.973 37.499 140.753 37.7831 140.469 38.0482C140.189 38.3086 139.836 38.5193 139.41 38.6803C138.989 38.8366 138.494 38.9147 137.926 38.9147ZM138.594 37.0255C139.11 37.0255 139.557 36.9237 139.936 36.7201C140.315 36.5118 140.606 36.2371 140.809 35.8962C141.018 35.5553 141.122 35.1836 141.122 34.7812V33.4957C141.041 33.5619 140.904 33.6235 140.71 33.6803C140.521 33.7371 140.308 33.7868 140.071 33.8295C139.834 33.8721 139.6 33.91 139.368 33.9431C139.136 33.9762 138.934 34.0047 138.764 34.0283C138.38 34.0804 138.037 34.1656 137.734 34.284C137.431 34.4024 137.192 34.5681 137.017 34.7812C136.842 34.9895 136.754 35.2594 136.754 35.5908C136.754 36.0643 136.927 36.4218 137.273 36.6633C137.618 36.9047 138.059 37.0255 138.594 37.0255ZM151.232 38.6945V27.7854H153.689V29.6391H153.817C154.045 29.0141 154.421 28.5264 154.947 28.1761C155.472 27.8209 156.099 27.6434 156.829 27.6434C157.567 27.6434 158.19 27.8233 158.697 28.1832C159.208 28.5383 159.568 29.0236 159.776 29.6391H159.89C160.131 29.0331 160.538 28.5501 161.111 28.1903C161.689 27.8257 162.373 27.6434 163.164 27.6434C164.168 27.6434 164.987 27.9606 165.621 28.5951C166.256 29.2296 166.573 30.1552 166.573 31.3721V38.6945H163.995V31.7698C163.995 31.0927 163.815 30.5979 163.455 30.2854C163.095 29.9682 162.655 29.8096 162.134 29.8096C161.514 29.8096 161.028 30.0037 160.678 30.392C160.332 30.7755 160.16 31.275 160.16 31.8905V38.6945H157.638V31.6633C157.638 31.0998 157.468 30.65 157.127 30.3138C156.791 29.9777 156.35 29.8096 155.806 29.8096C155.437 29.8096 155.1 29.9043 154.797 30.0937C154.494 30.2783 154.253 30.5411 154.073 30.882C153.893 31.2182 153.803 31.6112 153.803 32.061V38.6945H151.232ZM172.32 38.9147C171.629 38.9147 171.007 38.7916 170.453 38.5454C169.903 38.2944 169.468 37.9251 169.146 37.4374C168.829 36.9497 168.67 36.3484 168.67 35.6334C168.67 35.0179 168.784 34.5089 169.011 34.1065C169.238 33.704 169.548 33.382 169.941 33.1405C170.334 32.8991 170.777 32.7168 171.269 32.5937C171.766 32.4658 172.28 32.3735 172.811 32.3167C173.45 32.2504 173.968 32.1912 174.366 32.1391C174.764 32.0823 175.052 31.9971 175.232 31.8834C175.417 31.7651 175.509 31.5828 175.509 31.3366V31.294C175.509 30.7589 175.351 30.3446 175.034 30.0511C174.716 29.7575 174.259 29.6107 173.663 29.6107C173.033 29.6107 172.534 29.748 172.164 30.0226C171.8 30.2973 171.553 30.6216 171.426 30.9957L169.025 30.6547C169.214 29.9919 169.527 29.4379 169.963 28.9928C170.398 28.543 170.931 28.2068 171.561 27.9843C172.19 27.757 172.886 27.6434 173.649 27.6434C174.174 27.6434 174.697 27.7049 175.218 27.828C175.739 27.9511 176.215 28.1547 176.646 28.4388C177.077 28.7182 177.422 29.0993 177.683 29.5823C177.948 30.0653 178.08 30.669 178.08 31.3934V38.6945H175.609V37.1959H175.524C175.367 37.499 175.147 37.7831 174.863 38.0482C174.584 38.3086 174.231 38.5193 173.805 38.6803C173.383 38.8366 172.889 38.9147 172.32 38.9147ZM172.988 37.0255C173.504 37.0255 173.952 36.9237 174.33 36.7201C174.709 36.5118 175 36.2371 175.204 35.8962C175.412 35.5553 175.516 35.1836 175.516 34.7812V33.4957C175.436 33.5619 175.299 33.6235 175.105 33.6803C174.915 33.7371 174.702 33.7868 174.465 33.8295C174.229 33.8721 173.994 33.91 173.762 33.9431C173.53 33.9762 173.329 34.0047 173.159 34.0283C172.775 34.0804 172.432 34.1656 172.129 34.284C171.826 34.4024 171.587 34.5681 171.411 34.7812C171.236 34.9895 171.149 35.2594 171.149 35.5908C171.149 36.0643 171.321 36.4218 171.667 36.6633C172.013 36.9047 172.453 37.0255 172.988 37.0255ZM186.113 27.7854V29.7741H179.842V27.7854H186.113ZM181.39 25.1718H183.961V35.4133C183.961 35.7589 184.013 36.0241 184.117 36.2087C184.226 36.3886 184.368 36.5118 184.543 36.578C184.719 36.6443 184.913 36.6775 185.126 36.6775C185.287 36.6775 185.434 36.6656 185.566 36.642C185.704 36.6183 185.808 36.597 185.879 36.578L186.312 38.588C186.175 38.6353 185.978 38.6874 185.722 38.7442C185.471 38.8011 185.164 38.8342 184.799 38.8437C184.155 38.8626 183.575 38.7655 183.059 38.5525C182.543 38.3347 182.133 37.9985 181.83 37.544C181.532 37.0894 181.385 36.5212 181.39 35.8394V25.1718ZM192.905 38.9076C191.816 38.9076 190.88 38.6685 190.099 38.1903C189.323 37.712 188.724 37.0515 188.302 36.2087C187.886 35.3612 187.677 34.3858 187.677 33.2826C187.677 32.1746 187.89 31.1969 188.317 30.3493C188.743 29.4971 189.344 28.8342 190.121 28.3607C190.902 27.8825 191.825 27.6434 192.89 27.6434C193.776 27.6434 194.559 27.8067 195.241 28.1334C195.928 28.4554 196.475 28.9123 196.882 29.5042C197.289 30.0913 197.521 30.7779 197.578 31.5638H195.121C195.021 31.0383 194.784 30.6003 194.41 30.2499C194.041 29.8948 193.546 29.7172 192.926 29.7172C192.4 29.7172 191.939 29.8593 191.541 30.1434C191.143 30.4227 190.833 30.8252 190.611 31.3508C190.393 31.8763 190.284 32.5061 190.284 33.24C190.284 33.9833 190.393 34.6225 190.611 35.1576C190.828 35.6879 191.134 36.0975 191.527 36.3863C191.925 36.6704 192.391 36.8124 192.926 36.8124C193.305 36.8124 193.643 36.7414 193.942 36.5993C194.245 36.4526 194.498 36.2419 194.701 35.9672C194.905 35.6926 195.045 35.3588 195.121 34.9658H197.578C197.516 35.7376 197.289 36.4218 196.896 37.0184C196.503 37.6102 195.968 38.0743 195.291 38.4104C194.614 38.7419 193.818 38.9076 192.905 38.9076ZM202.26 32.3025V38.6945H199.689V24.1491H202.203V29.6391H202.331C202.587 29.0236 202.982 28.5383 203.517 28.1832C204.057 27.8233 204.744 27.6434 205.577 27.6434C206.334 27.6434 206.995 27.802 207.558 28.1192C208.122 28.4365 208.557 28.9005 208.865 29.5113C209.178 30.1221 209.334 30.8678 209.334 31.7485V38.6945H206.763V32.1462C206.763 31.4123 206.574 30.8418 206.195 30.4346C205.821 30.0226 205.295 29.8167 204.618 29.8167C204.163 29.8167 203.756 29.9161 203.396 30.115C203.041 30.3091 202.762 30.5908 202.558 30.9601C202.36 31.3295 202.26 31.7769 202.26 32.3025Z" fill="#C8C2FF"/>
<defs>
<radialGradient id="paint0_radial_2_296" cx="0" cy="0" r="1" gradientUnits="userSpaceOnUse" gradientTransform="translate(141.712 62.0531) rotate(90) scale(35.3323 102.512)">
<stop stop-color="#4532AA"/>
<stop offset="1" stop-color="#110E29"/>
</radialGradient>
<radialGradient id="paint1_radial_2_296" cx="0" cy="0" r="1" gradientUnits="userSpaceOnUse" gradientTransform="translate(147.795 7.49042) rotate(90.2208) scale(24.4105 137.011)">
<stop stop-color="#551EBA"/>
<stop offset="1" stop-color="#2A155E" stop-opacity="0"/>
</radialGradient>
<linearGradient id="paint2_linear_2_296" x1="15.7952" y1="36.378" x2="277.191" y2="35.765" gradientUnits="userSpaceOnUse">
<stop stop-color="#362D6B"/>
<stop offset="0.484375" stop-color="#9385F6"/>
<stop offset="1" stop-color="#402F81"/>
</linearGradient>
<linearGradient id="paint3_linear_2_296" x1="143.5" y1="7.04263" x2="143.5" y2="55.2729" gradientUnits="userSpaceOnUse">
<stop stop-color="#4D1E8F" stop-opacity="0"/>
<stop offset="0.453125" stop-color="#6A32B9"/>
<stop offset="1" stop-color="#20172E" stop-opacity="0"/>
</linearGradient>
<linearGradient id="paint4_linear_2_296" x1="7.73195" y1="37.7399" x2="285.017" y2="37.2006" gradientUnits="userSpaceOnUse">
<stop stop-color="#7396FE"/>
<stop offset="0.484375" stop-color="#D5DEFE"/>
<stop offset="1" stop-color="#6F92FE"/>
</linearGradient>
</defs>
</svg>
